# xmcd CD database file
#
# Track frame offsets:
#	150
#	12342
#	25492
#	38780
#	49062
#	60771
#	73643
#	86646
#	100302
#	112895
#	124992
#	137570
#	150233
#	164852
#	178319
#	193435
#	207500
#	221068
#	233202
#	245027
#	259956
#
# Disc length: 3674 seconds
#
# Revision: 0
# Processed by: cddbd v1.5.2PL0 Copyright (c) Steve Scherf et al.
# Submitted via: CDex 1.70beta2
#
DISCID=3c0e5815
DTITLE=Dizzy Gillespie and Charlie Parker - Bebop Story Vol. 1 1945 CD 011
DYEAR=2008
DGENRE=Jazz
TTITLE0=What's The Matter Now?
TTITLE1=I Want Every Bit Of It
TTITLE2=That's The Blues
TTITLE3=4-F Blues
TTITLE4=G.I. Blues
TTITLE5=Dream Of You
TTITLE6=Seventh Avenue
TTITLE7=Sorta Kinda
TTITLE8=Oh, Oh, My, My, Ooh, Ooh
TTITLE9=Groovin' High
TTITLE10=All The Things You Are
TTITLE11=Dizzy Atmosphere
TTITLE12=Salt Peanuts
TTITLE13=Shaw 'Nuff
TTITLE14=Lover Man
TTITLE15=Hot House
TTITLE16=What More Can A Woman Do?
TTITLE17=I'd Rather Have A Memory
TTITLE18=Mean To Me
TTITLE19=Sweet Georgia Brown
TTITLE20=Lover, Come Back To Me
EXTD=YEAR: 2008
EXTT0=
EXTT1=
EXTT2=
EXTT3=
EXTT4=
EXTT5=
EXTT6=
EXTT7=
EXTT8=
EXTT9=
EXTT10=
EXTT11=
EXTT12=
EXTT13=
EXTT14=
EXTT15=
EXTT16=
EXTT17=
EXTT18=
EXTT19=
EXTT20=
PLAYORDER=
